# Blender v2.92.0 OBJ File: 'Scene.blend'
# www.blender.org
mtllib Bench_boards.mtl
o Bench_boards_Plane.003
v -1.930982 0.600000 2.098601
v 1.930982 0.600000 2.098601
v -1.930982 0.600000 1.301399
v 1.930982 0.600000 1.301399
v -1.930982 0.600000 1.656314
v 1.930982 0.524955 1.656314
v 1.930982 0.524955 2.098601
v -1.930982 0.600000 1.743686
v 1.930982 0.600000 1.743686
v -1.930982 0.524955 2.098601
v -1.930982 0.524955 1.743686
v 1.930982 0.600000 1.656314
v 1.930982 0.524955 1.301399
v -1.930982 0.524955 1.301399
v -1.930982 0.524955 1.656314
v 1.930982 0.524955 1.743686
v -1.480419 0.600000 2.098601
v 1.480419 0.600000 2.098601
v 1.480419 0.524955 1.743686
v -1.480419 0.524955 1.743686
v 1.480419 0.600000 1.743686
v -1.480419 0.600000 1.743686
v -1.480419 0.524955 2.098601
v 1.480419 0.524955 2.098601
v 1.480419 0.600000 1.301399
v -1.480419 0.600000 1.301399
v 1.480419 0.524955 1.656314
v -1.480419 0.524955 1.656314
v 1.480419 0.524955 1.301399
v -1.480419 0.524955 1.301399
v 1.480419 0.600000 1.656314
v -1.480419 0.600000 1.656314
v -1.283029 0.600000 2.098601
v 1.283031 0.600000 2.098601
v 1.283030 0.524955 1.743686
v -1.283030 0.524955 1.743686
v 1.283030 0.600000 1.743686
v -1.283030 0.600000 1.743686
v -1.283029 0.524955 2.098601
v 1.283031 0.524955 2.098601
v 1.283030 0.600000 1.301399
v -1.283030 0.600000 1.301399
v 1.283030 0.524955 1.656314
v -1.283030 0.524955 1.656314
v 1.283030 0.524955 1.301399
v -1.283030 0.524955 1.301399
v 1.283030 0.600000 1.656314
v -1.283030 0.600000 1.656314
v 1.283031 0.833182 2.331632
v 1.480419 0.833182 2.331632
v -1.480419 0.833182 2.331632
v -1.283029 0.833182 2.331632
v 1.283031 1.511345 2.331633
v 1.480419 1.511345 2.331633
v -1.480419 1.511345 2.331633
v -1.283029 1.511345 2.331633
v -1.480419 1.139175 2.331632
v -1.480419 1.205352 2.331633
v -1.283029 1.139175 2.331632
v -1.283029 1.205352 2.331633
v 1.480419 1.139175 2.331632
v 1.480419 1.205352 2.331633
v 1.283031 1.205352 2.331633
v 1.283031 1.139175 2.331632
v 1.480419 0.600000 2.154240
v 1.930982 0.600000 2.154240
v -1.480419 0.600000 1.245760
v -1.930982 0.600000 1.245760
v -1.480419 0.524955 1.245760
v -1.930982 0.524955 1.245760
v 1.480419 0.524955 2.154240
v 1.930982 0.524955 2.154240
v -1.930982 0.600000 2.154240
v -1.930982 0.524955 2.154240
v 1.930982 0.524955 1.245760
v 1.930982 0.600000 1.245760
v -1.480419 0.600000 2.154240
v 1.283031 0.600000 2.154240
v -1.480419 0.524955 2.154240
v 1.283031 0.524955 2.154240
v 1.480419 0.600000 1.245760
v -1.283030 0.600000 1.245760
v 1.480419 0.524955 1.245760
v -1.283030 0.524955 1.245760
v -1.283029 0.600000 2.154240
v -1.283029 0.524955 2.154240
v 1.283030 0.600000 1.245760
v 1.283030 0.524955 1.245760
v 1.283031 0.833182 2.260286
v 1.480419 0.833182 2.260286
v -1.480419 0.833182 2.260286
v -1.283029 0.833182 2.260286
v 1.283031 1.511345 2.260287
v 1.480419 1.511345 2.260287
v -1.480419 1.511345 2.260287
v -1.283029 1.511345 2.260287
v 1.480419 1.205352 2.260286
v 1.283031 1.139175 2.260286
v -1.480419 1.205352 2.260286
v -1.283029 1.205352 2.260286
v -1.480419 1.139175 2.260286
v -1.283029 1.139175 2.260286
v 1.480419 1.139175 2.260286
v 1.283031 1.205352 2.260286
v 1.927922 1.205352 2.331633
v 1.927922 1.511345 2.331633
v -1.927922 1.205352 2.331633
v -1.927922 1.511345 2.331633
v -1.927922 0.833182 2.331632
v -1.927922 1.139175 2.331632
v 1.927922 0.833182 2.331632
v 1.927922 1.139175 2.331632
v 1.927922 1.205352 2.260286
v 1.927922 1.511345 2.260287
v -1.927922 1.205352 2.260286
v -1.927922 1.511345 2.260287
v -1.927922 0.833182 2.260286
v -1.927922 1.139175 2.260286
v 1.927922 0.833182 2.260286
v 1.927922 1.139175 2.260286
vt 0.214102 0.196981
vt 0.253021 0.147574
vt 0.253021 0.196981
vt 0.169084 0.521646
vt 0.208001 0.571051
vt 0.169084 0.571051
vt 0.117962 0.147574
vt 0.156880 0.196979
vt 0.117962 0.196979
vt 0.336958 0.356111
vt 0.298040 0.405516
vt 0.298040 0.356110
vt 0.336958 0.405516
vt 0.298040 0.413745
vt 0.298040 0.405516
vt 0.156880 0.147574
vt 0.162981 0.196979
vt 0.641842 0.852426
vt 0.633613 0.803021
vt 0.641841 0.803021
vt 0.214103 0.500001
vt 0.208001 0.218626
vt 0.214103 0.218626
vt 0.404540 0.275552
vt 0.396311 0.236634
vt 0.404540 0.236634
vt 0.650071 0.852426
vt 0.641842 0.803021
vt 0.650071 0.803021
vt 0.343059 0.413745
vt 0.304141 0.421974
vt 0.304141 0.413745
vt 0.337695 0.305869
vt 0.376613 0.297640
vt 0.376613 0.305869
vt 0.404540 0.230533
vt 0.343059 0.405516
vt 0.336958 0.405516
vt 0.641842 0.478360
vt 0.633612 0.428952
vt 0.641842 0.428952
vt 0.633613 0.781377
vt 0.641841 0.781377
vt 0.370512 0.181127
vt 0.331594 0.230533
vt 0.331594 0.181127
vt 0.169082 0.147574
vt 0.208001 0.196981
vt 0.169082 0.196981
vt 0.169084 0.500002
vt 0.208001 0.521646
vt 0.650071 0.478360
vt 0.641842 0.428952
vt 0.650071 0.428952
vt 0.641842 0.781377
vt 0.650071 0.781377
vt 0.208001 0.196981
vt 0.162981 0.218626
vt 0.169083 0.218626
vt 0.117959 0.521644
vt 0.156880 0.571053
vt 0.117959 0.571053
vt 0.214104 0.571051
vt 0.253021 0.521646
vt 0.253021 0.571051
vt 0.253021 0.218626
vt 0.208001 0.218626
vt 0.208001 0.500001
vt 0.291939 0.147574
vt 0.253021 0.428952
vt 0.253022 0.147574
vt 0.641842 0.500005
vt 0.633612 0.478360
vt 0.633612 0.500005
vt 0.331594 0.297640
vt 0.337695 0.297640
vt 0.162981 0.196981
vt 0.214103 0.521646
vt 0.253021 0.500001
vt 0.117963 0.218623
vt 0.156880 0.499998
vt 0.117963 0.499998
vt 0.208003 0.500002
vt 0.298040 0.428952
vt 0.291939 0.428952
vt 0.650071 0.500005
vt 0.641842 0.478360
vt 0.641842 0.500005
vt 0.392259 0.208889
vt 0.400083 0.230533
vt 0.392259 0.230533
vt 0.396311 0.252177
vt 0.388488 0.301248
vt 0.388488 0.252177
vt 0.388488 0.230533
vt 0.417826 0.155397
vt 0.439470 0.147574
vt 0.439470 0.155397
vt 0.625383 0.852426
vt 0.617154 0.803021
vt 0.625383 0.803021
vt 0.633612 0.852426
vt 0.625383 0.803021
vt 0.633612 0.803021
vt 0.633612 0.478360
vt 0.625383 0.428952
vt 0.633612 0.428952
vt 0.625383 0.781377
vt 0.633612 0.781377
vt 0.625383 0.478360
vt 0.617153 0.428952
vt 0.625383 0.428952
vt 0.617154 0.781377
vt 0.625383 0.781377
vt 0.633612 0.500005
vt 0.625383 0.478360
vt 0.625383 0.500005
vt 0.625383 0.500005
vt 0.617153 0.478360
vt 0.617153 0.500005
vt 0.376613 0.230533
vt 0.370512 0.230533
vt 0.162981 0.521644
vt 0.156880 0.521644
vt 0.162983 0.521646
vt 0.343059 0.413745
vt 0.336958 0.413745
vt 0.162981 0.147574
vt 0.162981 0.218623
vt 0.156880 0.218623
vt 0.162981 0.571053
vt 0.162983 0.500002
vt 0.162981 0.499998
vt 0.208003 0.521646
vt 0.208001 0.147574
vt 0.214102 0.147574
vt 0.298040 0.413745
vt 0.347111 0.356110
vt 0.368755 0.322557
vt 0.368755 0.356110
vt 0.331594 0.251842
vt 0.298040 0.230198
vt 0.331594 0.230198
vt 0.298040 0.181127
vt 0.319685 0.147574
vt 0.319685 0.181127
vt 0.331594 0.273487
vt 0.298040 0.251842
vt 0.331594 0.251842
vt 0.298040 0.322557
vt 0.347111 0.322557
vt 0.388488 0.252177
vt 0.380664 0.230533
vt 0.388488 0.230533
vt 0.550047 0.436775
vt 0.583600 0.428952
vt 0.583600 0.436775
vt 0.392130 0.423217
vt 0.343059 0.389664
vt 0.392130 0.389664
vt 0.331594 0.322557
vt 0.353238 0.314734
vt 0.353238 0.322557
vt 0.380664 0.314734
vt 0.402309 0.306910
vt 0.402309 0.314734
vt 0.380664 0.301248
vt 0.380664 0.252177
vt 0.550047 0.718154
vt 0.583600 0.725977
vt 0.550047 0.725977
vt 0.384436 0.230533
vt 0.376613 0.208889
vt 0.384436 0.208889
vt 0.542223 0.462505
vt 0.550047 0.428952
vt 0.550047 0.462505
vt 0.260844 0.428952
vt 0.253021 0.462505
vt 0.253021 0.428952
vt 0.384436 0.159818
vt 0.392259 0.181463
vt 0.384436 0.181463
vt 0.617153 0.710330
vt 0.617153 0.428952
vt 0.657894 0.710331
vt 0.650071 0.428952
vt 0.657894 0.428952
vt 0.673541 0.428952
vt 0.681365 0.710331
vt 0.673541 0.710331
vt 0.583600 0.718154
vt 0.542223 0.428952
vt 0.260844 0.462505
vt 0.534400 0.462505
vt 0.253021 0.496059
vt 0.253021 0.462505
vt 0.665718 0.710331
vt 0.657894 0.428952
vt 0.665718 0.428952
vt 0.665718 0.428952
vt 0.673541 0.710331
vt 0.665718 0.710331
vt 0.399953 0.356110
vt 0.392130 0.389664
vt 0.392130 0.356110
vt 0.384402 0.356110
vt 0.376579 0.322557
vt 0.384402 0.322557
vt 0.368755 0.356110
vt 0.376579 0.322557
vt 0.376579 0.356110
vt 0.384402 0.322557
vt 0.392226 0.356110
vt 0.384402 0.356110
vt 0.298040 0.322557
vt 0.298040 0.273487
vt 0.331594 0.264087
vt 0.380664 0.297640
vt 0.331594 0.297640
vt 0.376613 0.159818
vt 0.384436 0.159818
vt 0.384436 0.230533
vt 0.380664 0.264087
vt 0.331594 0.230533
vt 0.380664 0.230533
vt 0.331594 0.181127
vt 0.400083 0.208889
vt 0.392259 0.159818
vt 0.400083 0.159818
vt 0.392130 0.389664
vt 0.343059 0.356110
vt 0.392130 0.356110
vt 0.368755 0.181127
vt 0.402309 0.322557
vt 0.368755 0.147574
vt 0.417826 0.147574
vt 0.331594 0.306910
vt 0.380664 0.306910
vt 0.162980 0.147574
vt 0.633613 0.852426
vt 0.396311 0.275552
vt 0.641842 0.852426
vt 0.343059 0.421974
vt 0.396311 0.230533
vt 0.343059 0.356111
vt 0.208001 0.147574
vt 0.331594 0.305869
vt 0.298040 0.147574
vt 0.396311 0.301248
vt 0.396311 0.230533
vt 0.617154 0.852426
vt 0.625383 0.852426
vt 0.376613 0.181127
vt 0.162983 0.571051
vt 0.343059 0.405516
vt 0.208003 0.571051
vt 0.298040 0.421974
vt 0.298040 0.251842
vt 0.298040 0.147574
vt 0.298040 0.356110
vt 0.550047 0.428952
vt 0.343059 0.423217
vt 0.331594 0.314734
vt 0.388488 0.301248
vt 0.376613 0.230533
vt 0.392259 0.159818
vt 0.583600 0.710330
vt 0.650071 0.710331
vt 0.681365 0.428952
vt 0.534400 0.496059
vt 0.657894 0.710331
vt 0.673541 0.428952
vt 0.399953 0.389664
vt 0.376579 0.356110
vt 0.368755 0.322557
vt 0.392226 0.322557
vt 0.331594 0.322557
vt 0.380664 0.264087
vt 0.392259 0.230533
vt 0.331594 0.264087
vt 0.298040 0.181127
vt 0.343059 0.389664
vt 0.368755 0.147574
vt 0.402309 0.314734
vt 0.368755 0.155397
vt 0.331594 0.314734
vn 0.0000 -1.0000 0.0000
vn 0.0000 1.0000 0.0000
vn 1.0000 0.0000 0.0000
vn 0.0000 0.0000 1.0000
vn -1.0000 0.0000 0.0000
vn 0.0000 0.0000 -1.0000
usemtl Material
s off
f 25/1/1 12/2/1 31/3/1
f 18/4/1 9/5/1 2/6/1
f 6/7/2 29/8/2 27/9/2
f 24/10/2 16/11/2 19/12/2
f 1/13/3 11/14/3 8/15/3
f 13/16/2 83/17/2 29/8/2
f 8/18/4 20/19/4 22/20/4
f 42/21/1 87/22/1 41/23/1
f 9/24/5 7/25/5 2/26/5
f 12/27/6 27/28/6 31/29/6
f 5/30/3 14/31/3 3/32/3
f 4/33/5 6/34/5 12/35/5
f 7/25/5 66/36/5 2/26/5
f 24/10/2 72/37/2 7/38/2
f 21/39/4 16/40/4 9/41/4
f 22/20/4 36/42/4 38/43/4
f 10/44/2 20/45/2 11/46/2
f 1/47/1 22/48/1 17/49/1
f 34/50/1 21/51/1 18/4/1
f 32/52/6 15/53/6 5/54/6
f 31/29/6 43/55/6 47/56/6
f 41/23/1 81/57/1 25/1/1
f 34/50/1 85/58/1 33/59/1
f 28/60/2 14/61/2 15/62/2
f 3/63/1 32/64/1 5/65/1
f 41/23/1 31/3/1 47/66/1
f 17/49/1 38/67/1 33/59/1
f 33/59/1 37/68/1 34/50/1
f 39/69/2 35/70/2 36/71/2
f 37/72/4 19/73/4 21/39/4
f 38/43/4 35/74/4 37/72/4
f 4/33/5 75/75/5 13/76/5
f 33/59/1 77/77/1 17/49/1
f 26/78/1 48/79/1 32/64/1
f 42/21/1 47/66/1 48/79/1
f 43/80/2 46/81/2 44/82/2
f 26/78/1 82/83/1 42/21/1
f 39/69/2 80/84/2 40/85/2
f 48/86/6 28/87/6 32/52/6
f 47/56/6 44/88/6 48/86/6
f 55/89/1 96/90/1 56/91/1
f 94/92/1 106/93/1 54/94/1
f 53/95/1 94/92/1 54/94/1
f 62/96/2 104/97/2 63/98/2
f 68/99/4 69/100/4 67/101/4
f 66/102/6 71/103/6 65/104/6
f 77/105/6 74/106/6 73/107/6
f 65/104/6 80/108/6 78/109/6
f 81/110/4 75/111/4 76/112/4
f 67/101/4 84/113/4 82/114/4
f 85/115/6 79/116/6 77/105/6
f 78/109/6 86/117/6 85/115/6
f 87/118/4 83/119/4 81/110/4
f 82/114/4 88/120/4 87/118/4
f 10/44/2 79/121/2 23/122/2
f 46/81/2 69/123/2 30/124/2
f 2/6/1 65/125/1 18/4/1
f 1/13/3 74/126/3 10/127/3
f 17/49/1 73/128/1 1/47/1
f 29/8/2 88/129/2 45/130/2
f 30/124/2 70/131/2 14/61/2
f 18/4/1 78/132/1 34/50/1
f 45/130/2 84/133/2 46/81/2
f 3/63/1 67/134/1 26/78/1
f 25/1/1 76/135/1 4/136/1
f 14/31/3 68/137/3 3/32/3
f 97/138/4 93/139/4 104/140/4
f 100/141/4 95/142/4 99/143/4
f 92/144/4 101/145/4 91/146/4
f 90/147/4 98/148/4 89/149/4
f 97/138/4 114/150/4 94/151/4
f 50/152/2 89/153/2 49/154/2
f 56/155/5 100/156/5 60/157/5
f 58/158/6 108/159/6 55/160/6
f 52/161/2 91/162/2 51/163/2
f 57/164/1 102/165/1 59/166/1
f 50/152/2 119/167/2 90/168/2
f 53/169/3 104/170/3 93/171/3
f 60/172/2 99/173/2 58/174/2
f 64/175/3 89/176/3 98/177/3
f 52/178/5 102/179/5 92/180/5
f 64/181/1 103/182/1 61/183/1
f 93/184/6 100/156/6 96/185/6
f 53/186/2 96/187/2 56/188/2
f 60/189/1 104/190/1 63/191/1
f 63/192/4 56/155/4 60/157/4
f 49/193/4 59/194/4 52/178/4
f 92/195/6 98/196/6 89/197/6
f 64/198/2 102/199/2 59/200/2
f 52/201/1 89/202/1 49/203/1
f 108/204/3 115/205/3 116/206/3
f 109/207/3 118/208/3 110/209/3
f 111/210/5 120/211/5 119/212/5
f 106/213/5 113/214/5 105/215/5
f 90/147/4 120/216/4 103/217/4
f 51/218/6 110/219/6 57/220/6
f 58/174/2 115/221/2 107/222/2
f 103/182/1 112/223/1 61/183/1
f 61/224/6 111/225/6 50/226/6
f 95/142/4 115/227/4 99/143/4
f 95/228/1 108/229/1 116/230/1
f 54/231/6 105/232/6 62/233/6
f 101/145/4 117/234/4 91/146/4
f 91/162/2 109/235/2 51/163/2
f 62/96/2 113/236/2 97/237/2
f 57/164/1 118/238/1 101/239/1
f 25/1/1 4/136/1 12/2/1
f 18/4/1 21/51/1 9/5/1
f 6/7/2 13/16/2 29/8/2
f 24/10/2 7/38/2 16/11/2
f 1/13/3 10/127/3 11/14/3
f 13/16/2 75/240/2 83/17/2
f 8/18/4 11/241/4 20/19/4
f 42/21/1 82/83/1 87/22/1
f 9/24/5 16/242/5 7/25/5
f 12/27/6 6/243/6 27/28/6
f 5/30/3 15/244/3 14/31/3
f 4/33/5 13/76/5 6/34/5
f 7/25/5 72/245/5 66/36/5
f 24/10/2 71/246/2 72/37/2
f 21/39/4 19/73/4 16/40/4
f 22/20/4 20/19/4 36/42/4
f 10/44/2 23/122/2 20/45/2
f 1/47/1 8/247/1 22/48/1
f 34/50/1 37/68/1 21/51/1
f 32/52/6 28/87/6 15/53/6
f 31/29/6 27/28/6 43/55/6
f 41/23/1 87/22/1 81/57/1
f 34/50/1 78/132/1 85/58/1
f 28/60/2 30/124/2 14/61/2
f 3/63/1 26/78/1 32/64/1
f 41/23/1 25/1/1 31/3/1
f 17/49/1 22/48/1 38/67/1
f 33/59/1 38/67/1 37/68/1
f 39/69/2 40/85/2 35/70/2
f 37/72/4 35/74/4 19/73/4
f 38/43/4 36/42/4 35/74/4
f 4/33/5 76/248/5 75/75/5
f 33/59/1 85/58/1 77/77/1
f 26/78/1 42/21/1 48/79/1
f 42/21/1 41/23/1 47/66/1
f 43/80/2 45/130/2 46/81/2
f 26/78/1 67/134/1 82/83/1
f 39/69/2 86/249/2 80/84/2
f 48/86/6 44/88/6 28/87/6
f 47/56/6 43/55/6 44/88/6
f 55/89/1 95/228/1 96/90/1
f 94/92/1 114/250/1 106/93/1
f 53/95/1 93/251/1 94/92/1
f 62/96/2 97/237/2 104/97/2
f 68/99/4 70/252/4 69/100/4
f 66/102/6 72/253/6 71/103/6
f 77/105/6 79/116/6 74/106/6
f 65/104/6 71/103/6 80/108/6
f 81/110/4 83/119/4 75/111/4
f 67/101/4 69/100/4 84/113/4
f 85/115/6 86/117/6 79/116/6
f 78/109/6 80/108/6 86/117/6
f 87/118/4 88/120/4 83/119/4
f 82/114/4 84/113/4 88/120/4
f 10/44/2 74/254/2 79/121/2
f 46/81/2 84/133/2 69/123/2
f 2/6/1 66/255/1 65/125/1
f 1/13/3 73/256/3 74/126/3
f 17/49/1 77/77/1 73/128/1
f 29/8/2 83/17/2 88/129/2
f 30/124/2 69/123/2 70/131/2
f 18/4/1 65/125/1 78/132/1
f 45/130/2 88/129/2 84/133/2
f 3/63/1 68/257/1 67/134/1
f 25/1/1 81/57/1 76/135/1
f 14/31/3 70/258/3 68/137/3
f 97/138/4 94/151/4 93/139/4
f 100/141/4 96/259/4 95/142/4
f 92/144/4 102/260/4 101/145/4
f 90/147/4 103/217/4 98/148/4
f 97/138/4 113/261/4 114/150/4
f 50/152/2 90/168/2 89/153/2
f 56/155/5 96/262/5 100/156/5
f 58/158/6 107/263/6 108/159/6
f 52/161/2 92/264/2 91/162/2
f 57/164/1 101/239/1 102/165/1
f 50/152/2 111/265/2 119/167/2
f 53/169/3 63/192/3 104/170/3
f 60/172/2 100/266/2 99/173/2
f 64/175/3 49/193/3 89/176/3
f 52/178/5 59/194/5 102/179/5
f 64/181/1 98/267/1 103/182/1
f 93/184/6 104/268/6 100/156/6
f 53/186/2 93/269/2 96/187/2
f 60/189/1 100/270/1 104/190/1
f 63/192/4 53/169/4 56/155/4
f 49/193/4 64/175/4 59/194/4
f 92/195/6 102/271/6 98/196/6
f 64/198/2 98/272/2 102/199/2
f 52/201/1 92/273/1 89/202/1
f 108/204/3 107/274/3 115/205/3
f 109/207/3 117/275/3 118/208/3
f 111/210/5 112/276/5 120/211/5
f 106/213/5 114/277/5 113/214/5
f 90/147/4 119/278/4 120/216/4
f 51/218/6 109/279/6 110/219/6
f 58/174/2 99/173/2 115/221/2
f 103/182/1 120/280/1 112/223/1
f 61/224/6 112/281/6 111/225/6
f 95/142/4 116/282/4 115/227/4
f 95/228/1 55/89/1 108/229/1
f 54/231/6 106/283/6 105/232/6
f 101/145/4 118/284/4 117/234/4
f 91/162/2 117/285/2 109/235/2
f 62/96/2 105/286/2 113/236/2
f 57/164/1 110/287/1 118/238/1
