# Blender v2.92.0 OBJ File: 'Scene.blend'
# www.blender.org
o Road_Plane.001
v -10.000000 -0.324198 2.057694
v 10.000000 -0.324198 2.057694
v -10.000000 -0.324198 -2.057694
v 10.000000 -0.324198 -2.057694
v -10.000000 -0.324198 0.000000
v 0.000000 -0.324198 2.057694
v 10.000000 -0.324198 0.000000
v 0.000000 -0.324198 -2.057694
v 0.000000 -0.324198 0.000000
vt 16.741402 0.500000
vt 0.500000 2.890392
vt 0.500000 0.500000
vt -15.741402 2.890392
vt -15.741402 0.500000
vt 0.500000 -1.890392
vt -15.741402 -1.890392
vt 16.741402 -1.890392
vt 16.741402 2.890392
vn 0.0000 1.0000 0.0000
s off
f 7/1/1 8/2/1 9/3/1
f 9/3/1 3/4/1 5/5/1
f 6/6/1 5/5/1 1/7/1
f 2/8/1 9/3/1 6/6/1
f 7/1/1 4/9/1 8/2/1
f 9/3/1 8/2/1 3/4/1
f 6/6/1 9/3/1 5/5/1
f 2/8/1 7/1/1 9/3/1
