# Blender v3.0.1 OBJ File: 'player.blend'
# www.blender.org
o arm_r_Cube.008
v 0.023989 0.063127 -0.116540
v 0.023989 0.063127 0.136914
v -0.000215 -0.088379 -0.098803
v -0.021451 -0.088379 0.125506
v -0.331420 -0.325722 0.032181
v -0.331420 -0.325722 -0.085167
v -0.180587 -0.350854 0.032181
v -0.180587 -0.350854 -0.085167
v -0.246062 -0.138953 -0.116540
v -0.246062 -0.138953 0.063555
v -0.173322 0.012554 0.050633
v -0.173322 0.012554 -0.116540
v 0.023989 0.063127 0.041062
v -0.173322 0.012554 0.041062
v -0.173322 0.012554 -0.079871
v 0.023989 0.063127 -0.079871
v 0.023989 0.063127 -0.019404
v 0.023989 0.063127 0.010829
v 0.023989 0.063127 -0.049637
v -0.048751 -0.088379 -0.049946
v -0.048751 -0.088379 0.016648
v -0.048751 -0.088379 0.083242
v -0.331420 -0.325722 -0.055830
v -0.331420 -0.325722 -0.026493
v -0.331420 -0.325722 0.002844
v -0.180587 -0.350854 -0.055830
v -0.180587 -0.350854 -0.026493
v -0.180587 -0.350854 0.002844
v -0.246062 -0.138953 -0.071516
v -0.246062 -0.138953 -0.026493
v -0.246062 -0.138953 0.018531
vt 0.381352 -0.196052
vt 0.700065 0.144411
vt 0.282444 0.460386
vt 1.095272 0.341104
vt 0.803718 0.694433
vt 0.700065 0.040471
vt 0.116457 1.245762
vt 0.163793 0.631475
vt 0.223307 1.286627
vt 1.101655 -0.002364
vt 0.744983 -0.286627
vt 0.700065 0.493587
vt 0.376658 0.767873
vt 0.082816 0.631474
vt 0.102748 0.207255
vt 0.282444 0.631474
vt 0.035890 -0.017840
vt 0.064320 -0.286627
vt 0.129660 -0.017840
vt -0.169049 0.207255
vt -0.169049 0.631474
vt -0.245420 0.207255
vt -0.245420 0.631474
vt -0.057880 -0.017840
vt 0.082816 0.207255
vt -0.106726 0.406379
vt 0.031968 0.406379
vt -0.043117 0.631474
vt -0.180079 -0.286627
vt -0.151650 -0.017840
vt -0.245420 -0.017840
vt -0.118980 -0.286627
vt 0.003220 -0.286627
vt -0.080220 0.641814
vt -0.160493 1.257497
vt -0.245420 1.286627
vt -0.019217 0.639229
vt -0.022018 1.251630
vt 0.041786 0.636644
vt 0.685824 -0.286627
vt 1.101655 0.773619
vt 0.102790 0.634059
vt 0.019850 0.631474
vt -0.106083 0.631474
vt -0.208480 0.504300
vt 0.258685 0.461456
vt 0.170662 0.406379
vt -0.057880 -0.286627
vn 0.0954 -0.1169 -0.9886
vn -0.2163 -0.2081 0.9539
vn 0.6467 -0.4110 0.6425
vn -0.4119 0.0550 0.9096
vn 0.0310 -0.1211 -0.9922
vn -0.2483 0.9687 0.0000
vn -0.9095 0.4157 0.0000
vn -0.9015 0.4328 0.0000
vn 0.8009 -0.3016 -0.5173
vn 0.8936 -0.4488 0.0000
vn -0.0257 -0.1542 -0.9877
vn -0.0257 -0.1542 0.9877
vn -0.3059 0.2258 0.9249
vn 0.0797 -0.0383 -0.9961
vn -0.9875 0.1577 0.0000
vn -0.9578 0.2873 0.0000
vn -0.7347 0.4848 0.4745
vn -0.6713 0.3236 -0.6668
s off
f 8/1/1 9/2/1 3/3/1
f 10/4/2 7/5/2 4/6/2
f 20/7/3 8/8/3 3/9/3
f 11/10/4 4/6/4 2/11/4
f 3/3/5 12/12/5 1/13/5
f 13/14/6 11/15/6 2/16/6
f 31/17/7 5/18/7 10/19/7
f 15/20/6 13/14/6 16/21/6
f 12/22/6 16/21/6 1/23/6
f 30/24/8 31/17/8 14/25/8
f 20/26/8 21/27/8 17/28/8
f 6/29/7 29/30/7 9/31/7
f 23/32/7 30/24/7 29/30/7
f 30/24/7 25/33/7 31/17/7
f 7/34/9 22/35/9 4/36/9
f 28/37/10 21/38/10 22/35/10
f 27/39/10 20/7/10 21/38/10
f 8/1/11 6/40/11 9/2/11
f 10/4/12 5/41/12 7/5/12
f 20/7/10 26/42/10 8/8/10
f 11/10/13 10/4/13 4/6/13
f 3/3/14 9/2/14 12/12/14
f 13/14/6 14/25/6 11/15/6
f 31/17/7 25/33/7 5/18/7
f 15/20/6 14/25/6 13/14/6
f 12/22/6 15/20/6 16/21/6
f 31/17/8 10/19/8 14/25/8
f 10/19/8 11/15/8 14/25/8
f 14/25/8 15/20/8 30/24/8
f 15/20/8 12/22/8 9/31/8
f 9/31/8 29/30/8 15/20/8
f 29/30/8 30/24/8 15/20/8
f 13/14/8 18/43/8 21/27/8
f 18/43/8 17/28/8 21/27/8
f 19/44/15 16/21/15 3/45/15
f 16/21/15 1/23/15 3/45/15
f 2/16/16 13/14/16 4/46/16
f 4/46/17 13/14/17 22/47/17
f 17/28/8 19/44/8 20/26/8
f 20/26/18 19/44/18 3/45/18
f 21/27/8 22/47/8 13/14/8
f 6/29/7 23/32/7 29/30/7
f 23/32/7 24/48/7 30/24/7
f 30/24/7 24/48/7 25/33/7
f 7/34/10 28/37/10 22/35/10
f 28/37/10 27/39/10 21/38/10
f 27/39/10 26/42/10 20/7/10
