# Blender v3.0.1 OBJ File: 'player.blend'
# www.blender.org
o chest_Cube
v 0.211038 0.081453 -0.110271
v 0.232275 0.081453 0.114038
v 0.000000 0.081453 -0.128008
v 0.000000 0.081453 0.138368
v 0.234373 -0.346797 -0.110271
v 0.000000 -0.346797 0.138368
v 0.255610 -0.346797 0.114038
v 0.000000 -0.346797 -0.128008
v 0.262034 -0.554034 -0.110271
v 0.283271 -0.554034 0.114038
v 0.000000 -0.569986 -0.128008
v 0.000000 -0.569986 0.138368
v 0.000000 -0.221797 0.138368
v 0.203804 -0.221797 -0.110271
v 0.225041 -0.221797 0.114038
v 0.000000 -0.221797 -0.128008
v 0.201426 0.320674 -0.128008
v 0.201426 0.320674 0.125446
v 0.000000 0.320674 0.138368
v 0.000000 0.169167 0.138368
v 0.000000 0.169167 -0.128008
v 0.225629 0.169167 -0.110271
v 0.246866 0.169167 0.114038
v 0.000000 -0.063084 0.138368
v 0.176706 -0.048908 -0.110271
v 0.197943 -0.048908 0.114038
v 0.000000 -0.063084 -0.128008
v 0.000000 0.320674 -0.128008
v 0.000000 0.320674 0.125446
v 0.201426 0.320674 0.029595
v 0.000000 0.320674 0.029595
v 0.000000 0.320674 0.039011
v 0.000000 0.320674 -0.091338
v 0.000000 0.320674 -0.100272
v 0.201426 0.320674 -0.091338
v 0.201426 0.320674 -0.030872
v 0.080439 0.320674 0.014294
v 0.000000 0.320674 -0.030872
v 0.079706 0.320674 -0.075048
v 0.098407 0.320674 -0.030872
v 0.050357 0.320674 0.034346
v 0.050357 0.320674 -0.091338
v 0.068550 0.320674 0.023200
v 0.066000 0.320674 -0.085013
v 0.201426 0.320674 -0.000638
v 0.000000 0.320674 -0.000638
v 0.094781 0.320674 -0.000638
v 0.000000 0.320674 -0.061105
v 0.201426 0.320674 -0.061105
v 0.090275 0.320674 -0.061105
v 0.025178 0.320674 0.036754
v 0.025178 0.320674 -0.097707
v 0.173050 0.081453 0.138368
v 0.086525 0.081453 0.138368
v 0.086525 0.081453 -0.128008
v 0.173050 0.081453 -0.128008
v 0.094303 -0.346797 -0.128008
v 0.188607 -0.346797 -0.128008
v 0.188607 -0.346797 0.138368
v 0.094303 -0.346797 0.138368
v 0.207047 -0.559352 0.138368
v 0.103524 -0.564669 0.138368
v 0.103524 -0.564669 -0.128008
v 0.207047 -0.559352 -0.128008
v 0.084114 -0.221797 -0.128008
v 0.168227 -0.221797 -0.128008
v 0.168227 -0.221797 0.138368
v 0.084114 -0.221797 0.138368
v 0.134284 0.320674 0.129754
v 0.067142 0.320674 0.134061
v 0.067142 0.320674 -0.128008
v 0.182777 0.169167 0.138368
v 0.091389 0.169167 0.138368
v 0.091389 0.169167 -0.128008
v 0.182777 0.169167 -0.128008
v 0.075081 -0.058359 -0.128008
v 0.150162 -0.053633 -0.128008
v 0.150162 -0.053633 0.138368
v 0.075081 -0.058359 0.138368
v 0.134284 0.320674 0.125446
v 0.067142 0.320674 0.125446
v 0.134284 0.320674 -0.128008
v 0.259574 0.081453 -0.061414
v 0.259574 0.081453 0.005180
v 0.259574 0.081453 0.071774
v 0.282910 -0.346797 -0.061414
v 0.282910 -0.346797 0.005180
v 0.282910 -0.346797 0.071774
v 0.310571 -0.554034 -0.061414
v 0.310571 -0.554034 0.005180
v 0.310571 -0.554034 0.071774
v 0.252341 -0.221797 -0.061414
v 0.252341 -0.221797 0.005180
v 0.252341 -0.221797 0.071774
v 0.274166 0.169167 -0.061414
v 0.274166 0.169167 0.005180
v 0.274166 0.169167 0.071774
v 0.225243 -0.048908 -0.061414
v 0.225243 -0.048908 0.005180
v 0.225243 -0.048908 0.071774
v -0.211038 0.081453 -0.110271
v -0.232274 0.081453 0.114038
v -0.234373 -0.346797 -0.110271
v -0.255610 -0.346797 0.114038
v -0.262034 -0.554034 -0.110271
v -0.283271 -0.554034 0.114038
v -0.203804 -0.221797 -0.110271
v -0.225041 -0.221797 0.114038
v -0.201426 0.320674 -0.128008
v -0.201426 0.320674 0.125446
v -0.225629 0.169167 -0.110271
v -0.246866 0.169167 0.114038
v -0.176706 -0.048908 -0.110271
v -0.197943 -0.048908 0.114038
v -0.201426 0.320674 0.029595
v -0.201426 0.320674 -0.091338
v -0.201426 0.320674 -0.030872
v -0.080439 0.320674 0.014294
v -0.079706 0.320674 -0.075048
v -0.098407 0.320674 -0.030872
v -0.050357 0.320674 0.034346
v -0.050357 0.320674 -0.091338
v -0.068550 0.320674 0.023200
v -0.065999 0.320674 -0.085013
v -0.201426 0.320674 -0.000638
v -0.094781 0.320674 -0.000638
v -0.201426 0.320674 -0.061105
v -0.090275 0.320674 -0.061105
v -0.025178 0.320674 0.036754
v -0.025178 0.320674 -0.097707
v -0.173049 0.081453 0.138368
v -0.086525 0.081453 0.138368
v -0.086525 0.081453 -0.128008
v -0.173049 0.081453 -0.128008
v -0.094303 -0.346797 -0.128008
v -0.188607 -0.346797 -0.128008
v -0.188607 -0.346797 0.138368
v -0.094303 -0.346797 0.138368
v -0.207047 -0.559352 0.138368
v -0.103524 -0.564669 0.138368
v -0.103524 -0.564669 -0.128008
v -0.207047 -0.559352 -0.128008
v -0.084114 -0.221797 -0.128008
v -0.168227 -0.221797 -0.128008
v -0.168227 -0.221797 0.138368
v -0.084114 -0.221797 0.138368
v -0.134284 0.320674 0.129754
v -0.067142 0.320674 0.134061
v -0.067142 0.320674 -0.128008
v -0.182777 0.169167 0.138368
v -0.091389 0.169167 0.138368
v -0.091389 0.169167 -0.128008
v -0.182777 0.169167 -0.128008
v -0.075081 -0.058359 -0.128008
v -0.150162 -0.053633 -0.128008
v -0.150162 -0.053633 0.138368
v -0.075081 -0.058359 0.138368
v -0.134284 0.320674 0.125446
v -0.067142 0.320674 0.125446
v -0.134284 0.320674 -0.128008
v -0.259574 0.081453 -0.061414
v -0.259574 0.081453 0.005180
v -0.259574 0.081453 0.071774
v -0.282910 -0.346797 -0.061414
v -0.282910 -0.346797 0.005180
v -0.282910 -0.346797 0.071774
v -0.310571 -0.554034 -0.061414
v -0.310571 -0.554034 0.005180
v -0.310571 -0.554034 0.071774
v -0.252341 -0.221797 -0.061414
v -0.252341 -0.221797 0.005180
v -0.252341 -0.221797 0.071774
v -0.274166 0.169167 -0.061414
v -0.274166 0.169167 0.005180
v -0.274166 0.169167 0.071774
v -0.225243 -0.048908 -0.061414
v -0.225243 -0.048908 0.005180
v -0.225243 -0.048908 0.071774
vt 0.662954 0.093847
vt 0.550509 0.303229
vt 0.550509 0.086771
vt 1.433246 0.091820
vt 1.373412 0.285632
vt 1.365601 0.095021
vt -0.525333 0.303263
vt -0.530810 0.108032
vt -0.491056 0.100951
vt -0.576250 -0.656437
vt -0.617175 -0.338101
vt -0.658601 -0.648469
vt 1.439253 -0.359705
vt 1.373605 -0.669162
vt 1.441249 -0.672363
vt 0.705551 -0.664400
vt 0.550509 -0.338117
vt 0.550509 -0.672363
vt -0.548632 -0.338106
vt -0.571393 -0.150895
vt 1.435615 -0.169490
vt 1.371609 -0.356504
vt 0.676481 -0.150918
vt 0.691742 -0.338117
vt -0.266166 0.434628
vt -0.366721 0.661531
vt -0.403034 0.434628
vt 0.824245 0.434589
vt 0.852174 0.661646
vt 0.751619 0.661592
vt 0.898374 0.303534
vt 0.809676 0.303229
vt -0.395750 0.303263
vt -0.654917 0.303279
vt -0.604080 0.434632
vt -0.676770 0.434644
vt -0.518111 -0.150899
vt 1.367971 -0.166289
vt 0.550509 -0.150918
vt -0.085589 1.000905
vt 0.047241 1.063752
vt -0.089195 1.038613
vt 0.066594 0.824435
vt 0.066594 0.680883
vt 0.066594 0.810334
vt 0.053692 1.164307
vt 0.047241 1.264862
vt 0.047241 1.164307
vt 0.066594 0.674911
vt 0.066594 0.856025
vt 0.066594 0.720189
vt -0.286964 1.000905
vt -0.277426 1.038613
vt -0.332343 1.063752
vt 0.066594 0.661531
vt 0.066594 0.661531
vt 0.066594 0.661531
vt 0.066594 0.661531
vt 0.066594 0.661531
vt 0.066594 0.661531
vt -0.141589 1.105145
vt -0.096311 1.264862
vt -0.141589 1.264862
vt -0.232147 1.264862
vt -0.186868 1.110576
vt -0.186868 1.264862
vt -0.277426 1.264862
vt -0.232147 1.098397
vt 0.060143 1.063752
vt 0.047241 0.963197
vt 0.066594 0.963197
vt 0.846958 0.108305
vt 0.802454 -0.150918
vt 0.887541 -0.150613
vt 0.775398 0.100924
vt -0.266166 0.086797
vt -0.392138 -0.150899
vt -0.266166 -0.150899
vt -0.582226 0.303267
vt -0.539902 0.434628
vt 0.680092 0.303229
vt 0.550509 0.434589
vt 0.687377 0.434589
vt 0.651064 0.661538
vt 0.550509 0.661485
vt -0.567832 0.661531
vt -0.467276 0.661531
vt 0.832975 -0.338117
vt 0.933322 -0.337813
vt -0.266166 -0.338106
vt -0.407399 -0.338106
vt 0.860592 -0.656437
vt 0.974749 -0.648170
vt -0.421208 -0.664400
vt -0.266166 -0.672363
vt -0.266166 0.303263
vt -0.378611 0.093874
vt -0.603500 0.108043
vt -0.644083 -0.150884
vt 1.631335 0.091820
vt 1.534660 -0.169490
vt 1.633705 -0.169490
vt 1.532290 0.091820
vt 1.441057 0.282431
vt 1.377177 0.414883
vt 1.540101 0.282431
vt 1.444821 0.411682
vt 1.639146 0.282431
vt 1.543866 0.411682
vt -0.689865 -0.338090
vt 1.538297 -0.359705
vt 1.637342 -0.359705
vt -0.731292 -0.648458
vt 1.540293 -0.672363
vt 1.639338 -0.672363
vt -0.267953 1.062041
vt -0.232147 0.963197
vt -0.631540 1.591782
vt -0.694837 1.550897
vt -0.731280 1.436740
vt 1.676753 0.646417
vt 1.496891 0.646417
vt 1.642911 0.411682
vt 0.438064 0.093847
vt 0.420925 0.303229
vt 1.273976 0.089640
vt 1.337344 0.284091
vt 1.274190 0.282020
vt -0.001523 0.108032
vt -0.006999 0.303263
vt -0.041277 0.100951
vt 0.043918 -0.656437
vt 0.084843 -0.338101
vt 0.016300 -0.338106
vt 1.337442 -0.670292
vt 1.274198 -0.360295
vt 1.274288 -0.672363
vt 0.395467 -0.664400
vt 0.409276 -0.338117
vt 0.039061 -0.150895
vt -0.014221 -0.150899
vt 1.337352 -0.358224
vt 1.274072 -0.171011
vt 0.424536 -0.150918
vt -0.165611 0.661531
vt -0.129298 0.434628
vt 0.276773 0.434589
vt 0.248843 0.661646
vt 0.180790 0.434894
vt 0.202643 0.303534
vt 0.291342 0.303229
vt -0.136583 0.303263
vt 1.074723 0.282020
vt 1.001398 0.415792
vt 1.001299 0.285702
vt 1.337226 -0.168940
vt -0.089195 0.887780
vt -0.105888 0.860532
vt 0.047241 0.862642
vt 0.053692 0.762086
vt 0.047241 0.762086
vt 0.047241 0.661531
vt -0.277426 0.887780
vt -0.286964 0.925489
vt -0.332343 0.862641
vt 0.066594 0.661531
vt 0.066594 0.661531
vt 0.066594 0.661531
vt -0.096311 0.661531
vt -0.141589 0.821249
vt -0.141589 0.661531
vt -0.232147 0.661531
vt -0.186868 0.815817
vt -0.232147 0.827997
vt -0.186868 0.661531
vt -0.277426 0.661531
vt -0.253028 0.843825
vt 0.060143 0.862642
vt 0.298564 -0.150918
vt 0.254060 0.108305
vt 0.213477 -0.150613
vt 0.325619 0.100924
vt -0.140193 -0.150899
vt -0.153721 0.093874
vt 0.049894 0.303267
vt 0.007570 0.434628
vt 0.413641 0.434589
vt 0.449953 0.661538
vt 0.349398 0.661592
vt 0.035500 0.661531
vt 0.071747 0.434632
vt -0.065056 0.661531
vt 0.268043 -0.338117
vt 0.167695 -0.337813
vt -0.124933 -0.338106
vt 0.240425 -0.656437
vt 0.126269 -0.648170
vt -0.111124 -0.664400
vt 1.001181 -0.167328
vt 1.074509 0.089640
vt 1.001085 0.093322
vt 1.174338 -0.171011
vt 1.074605 -0.171011
vt 1.174242 0.089640
vt 1.337443 0.414180
vt 1.274289 0.412109
vt 1.174456 0.282020
vt 1.174556 0.412109
vt 1.001307 -0.356613
vt 1.174465 -0.360295
vt 1.074731 -0.360295
vt 1.001397 -0.668681
vt 1.174554 -0.672363
vt 1.074820 -0.672363
vt 0.071168 0.108043
vt -0.119225 0.842727
vt -0.186868 0.963197
vt -0.332343 0.816573
vt -0.332349 0.971615
vt -0.731280 0.816573
vt 1.074822 0.412109
vt 1.029666 0.644240
vt -0.266166 0.661531
vt 0.920227 0.434894
vt -0.119225 1.083666
vt -0.105888 1.065861
vt -0.082209 0.963197
vt 0.066594 0.661531
vt 0.066594 0.870126
vt 0.066594 0.810746
vt 0.066594 0.765468
vt -0.332343 1.264862
vt -0.332343 1.164307
vt -0.332343 0.963197
vt -0.290805 0.963197
vt -0.253028 1.082569
vt 0.066594 0.661531
vt 0.066594 0.661531
vt -0.141589 0.963197
vt -0.731286 1.281698
vt -0.332349 1.281698
vt -0.731292 1.126657
vt -0.332355 1.126657
vt -0.332343 1.436740
vt -0.358901 1.519091
vt -0.531806 1.591782
vt -0.432072 1.591782
vt 1.354331 0.646417
vt 1.707069 0.417373
vt 1.731292 0.646417
vt 1.337130 0.091711
vt 0.126269 -0.648469
vt -0.085589 0.925489
vt -0.332343 0.762086
vt -0.332343 0.661531
vt -0.267953 0.864353
vt 0.066594 0.661531
vt 0.066594 0.661531
vt 0.122585 0.303279
vt -0.731286 0.971615
vt -0.694837 0.702416
vt -0.631540 0.661531
vt -0.531806 0.661531
vt -0.432072 0.661531
vt -0.358901 0.734222
vt 1.354331 0.644240
vt 1.210780 0.644240
vt 0.974749 0.644240
vn 0.0000 0.0000 1.0000
vn 0.8202 -0.2160 0.5298
vn 0.5647 -0.0957 -0.8197
vn 0.3032 0.0405 -0.9521
vn 0.8348 0.1114 0.5392
vn 0.3600 0.0880 -0.9288
vn 0.8228 0.2012 0.5315
vn 0.0000 0.0000 -1.0000
vn 0.0638 0.0770 0.9950
vn 0.3797 -0.0421 0.9242
vn 0.7045 -0.1172 -0.6999
vn 0.4451 0.0698 -0.8928
vn 0.8328 0.1305 0.5379
vn 0.0000 1.0000 0.0000
vn 0.0000 -1.0000 0.0000
vn 0.3929 0.0616 0.9175
vn 0.3817 -0.0635 -0.9221
vn 0.0640 0.0000 0.9979
vn 0.0640 0.0386 0.9972
vn 0.3820 -0.0470 -0.9230
vn 0.3401 0.0832 0.9367
vn 0.3013 0.0402 0.9527
vn 0.4585 -0.0777 0.8853
vn 0.7051 0.1105 -0.7005
vn 0.9879 0.1548 0.0000
vn 0.8319 -0.1384 0.5374
vn 0.9864 -0.1641 0.0000
vn 0.6990 0.1709 -0.6944
vn 0.9714 0.2376 0.0000
vn 0.7063 0.0943 -0.7016
vn 0.9912 0.1323 0.0000
vn 0.6974 -0.1837 -0.6928
vn 0.9670 -0.2547 0.0000
vn 0.0874 -0.9946 0.0565
vn 0.9015 0.4328 0.0000
vn -0.8202 -0.2160 0.5298
vn -0.5647 -0.0957 -0.8197
vn -0.3612 0.0313 -0.9320
vn -0.8348 0.1114 0.5392
vn -0.4450 0.0726 -0.8926
vn -0.8228 0.2012 0.5315
vn -0.3547 0.0360 0.9343
vn -0.3796 -0.0421 0.9242
vn -0.7045 -0.1172 -0.6999
vn -0.5474 0.0588 -0.8348
vn -0.8328 0.1305 0.5379
vn -0.3929 0.0616 0.9175
vn -0.4226 -0.0469 -0.9051
vn 0.0000 0.0284 0.9996
vn 0.0000 0.0568 0.9984
vn -0.3820 -0.0470 -0.9230
vn -0.3401 0.0832 0.9367
vn -0.3013 0.0402 0.9527
vn -0.3781 -0.0996 0.9204
vn -0.7051 0.1105 -0.7005
vn -0.9879 0.1548 0.0000
vn -0.8319 -0.1384 0.5374
vn -0.9864 -0.1641 0.0000
vn -0.6990 0.1709 -0.6944
vn -0.9714 0.2376 0.0000
vn -0.7063 0.0943 -0.7016
vn -0.9912 0.1323 0.0000
vn -0.6974 -0.1837 -0.6928
vn -0.9670 -0.2547 0.0000
vn -0.0513 -0.9987 0.0000
vn -0.6955 0.1974 -0.6909
vn 0.4205 -0.1107 -0.9005
vn 0.3612 0.0313 -0.9320
vn 0.4450 0.0726 -0.8926
vn 0.3547 0.0360 0.9343
vn 0.3543 -0.0589 0.9333
vn 0.5474 0.0588 -0.8348
vn 0.4494 0.0483 0.8920
vn 0.4226 -0.0469 -0.9051
vn 0.3928 0.0640 0.9174
vn 0.3412 0.0296 0.9395
vn 0.3781 -0.0996 0.9204
vn 0.0513 -0.9987 0.0000
vn 0.1111 -0.9927 -0.0467
vn 0.9578 0.2873 0.0000
vn 0.7347 0.4848 0.4745
vn 0.6955 0.1974 -0.6909
vn 0.9875 0.1577 0.0000
vn -0.4205 -0.1107 -0.9005
vn -0.3032 0.0405 -0.9521
vn -0.3600 0.0880 -0.9288
vn -0.0638 0.0770 0.9950
vn -0.3543 -0.0589 0.9333
vn -0.4451 0.0698 -0.8928
vn -0.4494 0.0483 0.8920
vn -0.3817 -0.0635 -0.9221
vn -0.0640 0.0000 0.9979
vn -0.0640 0.0386 0.9972
vn -0.3928 0.0640 0.9174
vn -0.3412 0.0296 0.9395
vn -0.4585 -0.0777 0.8853
vn -0.0874 -0.9946 0.0565
vn -0.1111 -0.9927 -0.0467
vn -0.9578 0.2873 0.0000
vn -0.9875 0.1577 0.0000
vn -0.7347 0.4848 0.4745
vn -0.9015 0.4328 0.0000
s off
f 79/1/1 4/2/1 24/3/1
f 100/4/2 2/5/2 26/6/2
f 56/7/3 25/8/3 77/9/3
f 64/10/4 5/11/4 9/12/4
f 88/13/5 10/14/5 91/15/5
f 62/16/1 6/17/1 12/18/1
f 58/19/6 14/20/6 5/11/6
f 94/21/7 7/22/7 88/13/7
f 68/23/1 6/17/1 60/24/1
f 21/25/8 71/26/8 74/27/8
f 72/28/9 18/29/9 69/30/9
f 2/31/10 72/28/10 53/32/10
f 55/33/8 21/25/8 74/27/8
f 83/34/11 22/35/11 95/36/11
f 66/37/12 25/8/12 14/20/12
f 100/4/13 15/38/13 94/21/13
f 68/23/1 24/3/1 13/39/1
f 51/40/14 81/41/14 41/42/14
f 31/43/14 29/44/14 32/45/14
f 69/46/14 18/47/14 80/48/14
f 33/49/14 31/50/14 48/51/14
f 52/52/14 42/53/14 71/54/14
f 28/55/15 33/56/15 34/57/15
f 30/58/1 35/59/1 36/60/1
f 47/61/14 30/62/14 45/63/14
f 49/64/14 40/65/14 36/66/14
f 40/65/14 45/63/14 36/66/14
f 35/67/14 50/68/14 49/64/14
f 70/69/14 29/70/14 19/71/14
f 69/46/14 81/41/14 70/69/14
f 26/72/16 67/73/16 15/74/16
f 78/75/1 68/23/1 67/73/1
f 27/76/8 65/77/8 16/78/8
f 65/77/8 77/9/8 66/37/8
f 1/79/17 75/80/17 22/35/17
f 56/7/8 74/27/8 75/80/8
f 54/81/1 20/82/1 4/2/1
f 53/32/1 73/83/1 54/81/1
f 20/82/18 70/84/18 19/85/18
f 73/83/19 69/30/19 70/84/19
f 75/80/20 17/86/20 22/35/20
f 74/27/8 82/87/8 75/80/8
f 15/74/21 59/88/21 7/89/21
f 67/73/1 60/24/1 59/88/1
f 8/90/8 65/77/8 57/91/8
f 57/91/8 66/37/8 58/19/8
f 7/89/22 61/92/22 10/93/22
f 59/88/1 62/16/1 61/92/1
f 8/90/8 63/94/8 11/95/8
f 63/94/8 58/19/8 64/10/8
f 3/96/8 76/97/8 27/76/8
f 55/33/8 77/9/8 76/97/8
f 26/72/23 53/32/23 78/75/23
f 78/75/1 54/81/1 79/1/1
f 14/20/24 98/98/24 92/99/24
f 98/100/25 93/101/25 92/102/25
f 99/103/25 94/21/25 93/101/25
f 85/104/26 23/105/26 2/5/26
f 84/106/27 97/107/27 85/104/27
f 83/108/27 96/109/27 84/106/27
f 5/11/28 92/99/28 86/110/28
f 92/102/29 87/111/29 86/112/29
f 93/101/29 88/13/29 87/111/29
f 9/12/30 86/110/30 89/113/30
f 86/112/31 90/114/31 89/115/31
f 87/111/31 91/15/31 90/114/31
f 1/79/32 98/98/32 25/8/32
f 83/108/33 99/103/33 98/100/33
f 84/106/33 100/4/33 99/103/33
f 44/116/14 42/53/14 48/117/14
f 91/118/34 10/119/34 61/120/34
f 35/121/35 30/122/35 95/123/35
f 157/124/1 4/2/1 132/125/1
f 178/126/36 102/127/36 163/128/36
f 113/129/37 134/130/37 155/131/37
f 142/132/38 103/133/38 136/134/38
f 106/135/39 166/136/39 169/137/39
f 140/138/1 6/17/1 138/139/1
f 136/134/40 107/140/40 144/141/40
f 104/142/41 172/143/41 166/136/41
f 6/17/1 146/144/1 138/139/1
f 149/145/8 21/25/8 152/146/8
f 150/147/42 110/148/42 112/149/42
f 150/147/43 102/150/43 131/151/43
f 133/152/8 21/25/8 3/96/8
f 161/153/44 111/154/44 101/155/44
f 144/141/45 113/129/45 155/131/45
f 108/156/46 178/126/46 172/143/46
f 146/144/1 24/3/1 157/124/1
f 121/157/14 123/158/14 159/159/14
f 147/160/14 158/161/14 110/162/14
f 122/163/14 130/164/14 149/165/14
f 115/166/1 117/167/1 116/168/1
f 115/169/14 126/170/14 125/171/14
f 127/172/14 120/173/14 128/174/14
f 125/171/14 120/173/14 117/175/14
f 116/176/14 128/174/14 119/177/14
f 29/70/14 148/178/14 19/71/14
f 159/159/14 147/160/14 148/178/14
f 145/179/47 114/180/47 108/181/47
f 146/144/1 156/182/1 145/179/1
f 143/183/8 27/76/8 16/78/8
f 143/183/8 155/131/8 154/184/8
f 101/185/48 153/186/48 134/130/48
f 134/130/8 152/146/8 133/152/8
f 20/82/1 132/125/1 4/2/1
f 151/187/1 131/151/1 132/125/1
f 20/82/49 148/188/49 151/187/49
f 151/187/50 147/189/50 150/147/50
f 109/190/51 153/186/51 111/191/51
f 160/192/8 152/146/8 153/186/8
f 137/193/52 108/181/52 104/194/52
f 138/139/1 145/179/1 137/193/1
f 8/90/8 143/183/8 16/78/8
f 135/195/8 144/141/8 143/183/8
f 139/196/53 104/194/53 106/197/53
f 140/138/1 137/193/1 139/196/1
f 141/198/8 8/90/8 11/95/8
f 141/198/8 136/134/8 135/195/8
f 154/184/8 3/96/8 27/76/8
f 155/131/8 133/152/8 154/184/8
f 114/180/54 131/151/54 102/150/54
f 156/182/1 132/125/1 131/151/1
f 107/199/55 176/200/55 113/201/55
f 171/202/56 176/200/56 170/203/56
f 172/143/56 177/204/56 171/202/56
f 112/205/57 163/128/57 102/127/57
f 175/206/58 162/207/58 163/128/58
f 174/208/58 161/153/58 162/207/58
f 103/209/59 170/203/59 107/199/59
f 165/210/60 170/203/60 164/211/60
f 166/136/60 171/202/60 165/210/60
f 105/212/61 164/211/61 103/209/61
f 168/213/62 164/211/62 167/214/62
f 169/137/62 165/210/62 168/213/62
f 176/215/63 101/185/63 113/129/63
f 177/204/64 161/153/64 176/200/64
f 178/126/64 162/207/64 177/204/64
f 120/173/14 118/216/14 38/217/14
f 142/218/65 141/219/65 139/220/65
f 111/154/66 173/221/66 116/222/66
f 79/1/1 54/81/1 4/2/1
f 100/4/2 85/104/2 2/5/2
f 56/7/67 1/79/67 25/8/67
f 64/10/68 58/19/68 5/11/68
f 88/13/5 7/22/5 10/14/5
f 62/16/1 60/24/1 6/17/1
f 58/19/69 66/37/69 14/20/69
f 94/21/7 15/38/7 7/22/7
f 68/23/1 13/39/1 6/17/1
f 21/25/8 28/223/8 71/26/8
f 72/28/70 23/224/70 18/29/70
f 2/31/71 23/224/71 72/28/71
f 55/33/8 3/96/8 21/25/8
f 83/34/11 1/79/11 22/35/11
f 66/37/72 77/9/72 25/8/72
f 100/4/13 26/6/13 15/38/13
f 68/23/1 79/1/1 24/3/1
f 18/47/14 30/62/14 80/48/14
f 30/62/14 37/225/14 80/48/14
f 37/225/14 43/226/14 80/48/14
f 29/70/14 81/41/14 51/40/14
f 81/41/14 80/48/14 43/226/14
f 29/70/14 51/40/14 32/227/14
f 43/226/14 41/42/14 81/41/14
f 31/43/15 19/228/15 29/44/15
f 31/50/14 32/229/14 46/230/14
f 46/230/14 38/231/14 48/51/14
f 31/50/15 46/230/15 48/51/15
f 48/51/15 34/57/15 33/49/15
f 35/67/14 17/232/14 82/233/14
f 71/54/14 28/234/14 52/52/14
f 28/234/14 34/235/14 52/52/14
f 35/67/14 82/233/14 39/236/14
f 82/233/14 71/54/14 39/236/14
f 39/236/14 71/54/14 44/116/14
f 42/53/14 44/116/14 71/54/14
f 35/59/14 49/237/14 36/60/14
f 36/60/14 45/238/14 30/58/14
f 47/61/14 37/225/14 30/62/14
f 49/64/14 50/68/14 40/65/14
f 40/65/14 47/61/14 45/63/14
f 35/67/14 39/236/14 50/68/14
f 70/69/14 81/41/14 29/70/14
f 69/46/14 80/48/14 81/41/14
f 26/72/73 78/75/73 67/73/73
f 78/75/1 79/1/1 68/23/1
f 27/76/8 76/97/8 65/77/8
f 65/77/8 76/97/8 77/9/8
f 1/79/74 56/7/74 75/80/74
f 56/7/8 55/33/8 74/27/8
f 54/81/1 73/83/1 20/82/1
f 53/32/1 72/28/1 73/83/1
f 20/82/49 73/83/49 70/84/49
f 73/83/50 72/28/50 69/30/50
f 75/80/8 82/87/8 17/86/8
f 74/27/8 71/26/8 82/87/8
f 15/74/75 67/73/75 59/88/75
f 67/73/1 68/23/1 60/24/1
f 8/90/8 16/78/8 65/77/8
f 57/91/8 65/77/8 66/37/8
f 7/89/76 59/88/76 61/92/76
f 59/88/1 60/24/1 62/16/1
f 8/90/8 57/91/8 63/94/8
f 63/94/8 57/91/8 58/19/8
f 3/96/8 55/33/8 76/97/8
f 55/33/8 56/7/8 77/9/8
f 26/72/77 2/31/77 53/32/77
f 78/75/1 53/32/1 54/81/1
f 14/20/24 25/8/24 98/98/24
f 98/100/25 99/103/25 93/101/25
f 99/103/25 100/4/25 94/21/25
f 85/104/26 97/107/26 23/105/26
f 84/106/27 96/109/27 97/107/27
f 83/108/27 95/123/27 96/109/27
f 5/11/28 14/20/28 92/99/28
f 92/102/29 93/101/29 87/111/29
f 93/101/29 94/21/29 88/13/29
f 9/12/30 5/11/30 86/110/30
f 86/112/31 87/111/31 90/114/31
f 87/111/31 88/13/31 91/15/31
f 1/79/32 83/34/32 98/98/32
f 83/108/33 84/106/33 99/103/33
f 84/106/33 85/104/33 100/4/33
f 34/235/14 48/117/14 52/52/14
f 48/117/14 38/217/14 44/116/14
f 52/52/14 48/117/14 42/53/14
f 46/239/14 32/227/14 51/40/14
f 38/217/14 46/239/14 43/226/14
f 46/239/14 51/40/14 41/42/14
f 43/226/14 46/239/14 41/42/14
f 43/226/14 37/225/14 38/217/14
f 37/225/14 47/61/14 40/65/14
f 38/217/14 37/225/14 40/65/14
f 40/65/14 50/68/14 38/217/14
f 50/68/14 39/236/14 38/217/14
f 39/236/14 44/116/14 38/217/14
f 61/120/78 62/240/78 63/241/78
f 62/240/78 12/242/78 63/241/78
f 12/242/78 11/243/78 63/241/78
f 63/241/78 64/244/78 61/120/78
f 64/244/79 9/245/79 90/246/79
f 61/120/78 64/244/78 90/246/78
f 9/245/15 89/247/15 90/246/15
f 90/246/78 91/118/78 61/120/78
f 30/122/80 18/248/80 23/105/80
f 23/105/81 97/107/81 30/122/81
f 97/107/35 96/109/35 30/122/35
f 96/109/35 95/123/35 30/122/35
f 95/123/82 22/249/82 35/121/82
f 22/249/83 17/250/83 35/121/83
f 157/124/1 24/3/1 4/2/1
f 178/126/36 114/251/36 102/127/36
f 113/129/84 101/185/84 134/130/84
f 142/132/85 105/252/85 103/133/85
f 106/135/39 104/142/39 166/136/39
f 140/138/1 12/18/1 6/17/1
f 136/134/86 103/133/86 107/140/86
f 104/142/41 108/156/41 172/143/41
f 6/17/1 13/39/1 146/144/1
f 149/145/8 28/223/8 21/25/8
f 150/147/87 147/189/87 110/148/87
f 150/147/88 112/149/88 102/150/88
f 133/152/8 152/146/8 21/25/8
f 161/153/44 173/221/44 111/154/44
f 144/141/89 107/140/89 113/129/89
f 108/156/46 114/251/46 178/126/46
f 146/144/1 13/39/1 24/3/1
f 118/216/14 115/169/14 158/161/14
f 115/169/14 110/162/14 158/161/14
f 158/161/14 159/159/14 123/158/14
f 159/159/14 29/70/14 129/253/14
f 129/253/14 29/70/14 32/227/14
f 123/158/14 118/216/14 158/161/14
f 159/159/14 129/253/14 121/157/14
f 160/254/14 109/255/14 116/176/14
f 116/176/14 119/177/14 160/254/14
f 119/177/14 124/256/14 149/165/14
f 160/254/14 119/177/14 149/165/14
f 124/256/14 122/163/14 149/165/14
f 34/235/14 28/234/14 130/164/14
f 28/234/14 149/165/14 130/164/14
f 115/166/14 125/257/14 117/167/14
f 117/167/14 127/258/14 116/168/14
f 115/169/14 118/216/14 126/170/14
f 127/172/14 117/175/14 120/173/14
f 125/171/14 126/170/14 120/173/14
f 116/176/14 127/172/14 128/174/14
f 29/70/14 159/159/14 148/178/14
f 159/159/14 158/161/14 147/160/14
f 145/179/90 156/182/90 114/180/90
f 146/144/1 157/124/1 156/182/1
f 143/183/8 154/184/8 27/76/8
f 143/183/8 144/141/8 155/131/8
f 101/185/91 111/191/91 153/186/91
f 134/130/8 153/186/8 152/146/8
f 20/82/1 151/187/1 132/125/1
f 151/187/1 150/147/1 131/151/1
f 20/82/92 19/85/92 148/188/92
f 151/187/93 148/188/93 147/189/93
f 109/190/8 160/192/8 153/186/8
f 160/192/8 149/145/8 152/146/8
f 137/193/94 145/179/94 108/181/94
f 138/139/1 146/144/1 145/179/1
f 8/90/8 135/195/8 143/183/8
f 135/195/8 136/134/8 144/141/8
f 139/196/95 137/193/95 104/194/95
f 140/138/1 138/139/1 137/193/1
f 141/198/8 135/195/8 8/90/8
f 141/198/8 142/132/8 136/134/8
f 154/184/8 133/152/8 3/96/8
f 155/131/8 134/130/8 133/152/8
f 114/180/96 156/182/96 131/151/96
f 156/182/1 157/124/1 132/125/1
f 107/199/55 170/203/55 176/200/55
f 171/202/56 177/204/56 176/200/56
f 172/143/56 178/126/56 177/204/56
f 112/205/57 175/206/57 163/128/57
f 175/206/58 174/208/58 162/207/58
f 174/208/58 173/221/58 161/153/58
f 103/209/59 164/211/59 170/203/59
f 165/210/60 171/202/60 170/203/60
f 166/136/60 172/143/60 171/202/60
f 105/212/61 167/214/61 164/211/61
f 168/213/62 165/210/62 164/211/62
f 169/137/62 166/136/62 165/210/62
f 176/215/63 161/259/63 101/185/63
f 177/204/64 162/207/64 161/153/64
f 178/126/64 163/128/64 162/207/64
f 38/217/14 48/117/14 124/256/14
f 48/117/14 34/235/14 130/164/14
f 122/163/14 48/117/14 130/164/14
f 122/163/14 124/256/14 48/117/14
f 124/256/14 119/177/14 38/217/14
f 119/177/14 128/174/14 38/217/14
f 128/174/14 120/173/14 38/217/14
f 120/173/14 126/170/14 118/216/14
f 118/216/14 123/158/14 38/217/14
f 123/158/14 121/157/14 46/239/14
f 121/157/14 129/253/14 46/239/14
f 129/253/14 32/227/14 46/239/14
f 46/239/14 38/217/14 123/158/14
f 12/242/65 140/260/65 141/219/65
f 140/260/65 139/220/65 141/219/65
f 139/220/97 106/261/97 169/262/97
f 169/262/65 168/263/65 139/220/65
f 168/263/15 167/264/15 105/265/15
f 139/220/65 168/263/65 142/218/65
f 105/265/98 142/218/98 168/263/98
f 141/219/65 11/243/65 12/242/65
f 112/205/99 110/266/99 115/267/99
f 116/222/100 109/268/100 111/154/100
f 112/205/101 115/267/101 175/206/101
f 115/267/102 116/222/102 173/221/102
f 174/208/102 115/267/102 173/221/102
f 174/208/102 175/206/102 115/267/102
