# Blender v3.0.1 OBJ File: 'player.blend'
# www.blender.org
o forearm_l_Cube.009
v 0.075416 0.012566 0.058674
v 0.075416 0.012566 -0.058674
v -0.075416 -0.012566 0.058674
v -0.075416 -0.012566 -0.058674
v 0.156099 -0.401630 0.049151
v 0.156099 -0.401630 -0.031797
v 0.045084 -0.420127 0.049151
v 0.045084 -0.420127 -0.031797
v 0.075416 0.012566 -0.029337
v 0.075416 0.012566 -0.000000
v 0.075416 0.012566 0.029337
v -0.075416 -0.012566 -0.029337
v -0.075416 -0.012566 -0.000000
v -0.075416 -0.012566 0.029337
v 0.156099 -0.401630 -0.011560
v 0.156099 -0.401630 0.008677
v 0.156099 -0.401630 0.028914
v 0.045084 -0.420127 -0.011560
v 0.045084 -0.420127 0.008677
v 0.045084 -0.420127 0.028914
vt 0.582801 0.739271
vt 0.578522 0.000000
vt 0.613724 0.000000
vt 0.265885 0.007242
vt 0.070189 0.737415
vt 0.000000 0.000000
vt 0.786923 0.734016
vt 0.752456 0.000000
vt 0.787658 0.000000
vt 0.531770 0.734203
vt 0.336075 0.005340
vt 0.531770 0.000000
vt 0.888984 0.734016
vt 0.940014 1.000000
vt 0.888984 1.000000
vt 0.888984 0.734016
vt 0.893262 0.000000
vt 0.940014 0.734016
vt 0.837953 0.734016
vt 0.858061 0.000000
vt 0.822859 0.000000
vt 0.684862 0.739271
vt 0.719328 0.000000
vt 0.735892 0.739271
vt 0.648925 0.000000
vt 0.684127 0.000000
vt 0.633831 0.739271
vt 0.566972 0.935040
vt 0.531770 0.935040
vt 0.531770 0.739271
vt 0.531770 0.739271
vt 0.265885 0.742745
vt 0.735892 0.734016
vt 0.265885 0.741458
vt 0.735892 1.000000
vt 0.735892 0.734016
vt 0.786923 0.734016
vt 0.837953 0.734016
vt 0.940014 0.734016
vt 0.786923 1.000000
vt 0.837953 1.000000
vt 0.637375 0.739271
vt 0.672576 0.739271
vt 0.672576 0.935040
vt 0.637375 0.935040
vt 0.602173 0.935040
vt 0.602173 0.739271
vt 0.566972 0.739271
vn -0.9590 -0.2835 0.0000
vn 0.0105 -0.0627 -0.9980
vn 0.9816 0.1912 0.0000
vn 0.0037 -0.0223 0.9997
vn -0.1644 0.9864 0.0000
vn 0.1644 -0.9864 0.0000
s off
f 12/1/1 8/2/1 18/3/1
f 2/4/2 8/5/2 4/6/2
f 11/7/3 5/8/3 17/9/3
f 1/10/4 7/11/4 5/12/4
f 14/13/5 1/14/5 11/15/5
f 9/16/3 6/17/3 2/18/3
f 10/19/3 15/20/3 9/16/3
f 11/7/3 16/21/3 10/19/3
f 14/22/1 7/23/1 3/24/1
f 14/22/1 19/25/1 20/26/1
f 13/27/1 18/3/1 19/25/1
f 17/28/6 5/29/6 7/30/6
f 12/1/1 4/31/1 8/2/1
f 2/4/2 6/32/2 8/5/2
f 11/7/3 1/33/3 5/8/3
f 1/10/4 3/34/4 7/11/4
f 2/35/5 4/36/5 12/37/5
f 13/38/5 14/13/5 11/15/5
f 14/13/5 3/39/5 1/14/5
f 2/35/5 12/37/5 9/40/5
f 12/37/5 13/38/5 9/40/5
f 11/15/5 10/41/5 13/38/5
f 10/41/5 9/40/5 13/38/5
f 9/16/3 15/20/3 6/17/3
f 10/19/3 16/21/3 15/20/3
f 11/7/3 17/9/3 16/21/3
f 14/22/1 20/26/1 7/23/1
f 14/22/1 13/27/1 19/25/1
f 13/27/1 12/1/1 18/3/1
f 18/42/6 8/43/6 6/44/6
f 15/45/6 16/46/6 19/47/6
f 16/46/6 17/28/6 19/47/6
f 18/42/6 6/44/6 15/45/6
f 7/30/6 20/48/6 17/28/6
f 20/48/6 19/47/6 17/28/6
f 19/47/6 18/42/6 15/45/6
