# Blender v3.0.1 OBJ File: 'player.blend'
# www.blender.org
o hand_r_Cube.006
v -0.055508 0.009248 0.040474
v -0.055508 0.009248 -0.040474
v 0.055508 -0.009249 0.040474
v 0.055508 -0.009249 -0.040474
v -0.063665 -0.187068 0.077149
v -0.063665 -0.187068 0.056707
v -0.000428 -0.197605 0.077149
v -0.000428 -0.197605 0.056707
v -0.055508 0.009248 -0.020237
v -0.055508 0.009248 0.000000
v -0.055508 0.009248 0.020237
v 0.055508 -0.009249 -0.020237
v 0.055508 -0.009249 0.000000
v 0.055508 -0.009249 0.020237
v -0.063665 -0.187068 0.061817
v -0.063665 -0.187068 0.066928
v -0.063665 -0.187068 0.072038
v -0.000428 -0.197605 0.061817
v -0.000428 -0.197605 0.066928
v -0.000428 -0.197605 0.072038
vt 0.291913 0.649251
vt 0.303663 0.513070
vt 0.303663 0.655062
vt 0.121071 0.511629
vt 0.079545 0.513106
vt 0.079545 0.511629
vt 0.209662 0.507199
vt 0.152447 0.635719
vt 0.136759 0.507199
vt 0.247761 0.653595
vt 0.209662 0.530446
vt 0.221412 0.524634
vt 0.136759 0.654229
vt 0.063857 0.654229
vt 0.136759 0.642534
vt 0.136759 0.648382
vt 0.063857 0.642534
vt 0.256663 0.649192
vt 0.244912 0.513011
vt 0.256663 0.507199
vt 0.253695 0.650659
vt 0.233162 0.518823
vt 0.250728 0.652127
vt 0.121071 0.507199
vt 0.079545 0.508676
vt 0.079545 0.507199
vt 0.121071 0.508676
vt 0.079545 0.510153
vt 0.121071 0.510153
vt 0.256663 0.631816
vt 0.294761 0.508667
vt 0.268413 0.637628
vt 0.297729 0.510135
vt 0.280163 0.643439
vt 0.300696 0.511602
vt 0.121071 0.513106
vt 0.193974 0.635719
vt 0.244794 0.655062
vt 0.063857 0.648382
vt 0.063857 0.636687
vt 0.063857 0.630840
vt 0.136759 0.630840
vt 0.136759 0.636687
vt 0.291794 0.507199
vn 0.9586 -0.2847 0.0000
vn -0.1644 -0.9864 0.0000
vn 0.0304 0.1823 0.9828
vn -0.9991 0.0415 0.0000
vn -0.0733 -0.4400 -0.8950
s off
f 12/1/1 8/2/1 4/3/1
f 15/4/2 8/5/2 18/6/2
f 1/7/3 7/8/3 3/9/3
f 17/10/4 1/11/4 11/12/4
f 8/5/5 2/13/5 4/14/5
f 10/15/2 9/16/2 13/17/2
f 6/18/4 9/19/4 2/20/4
f 15/21/4 10/22/4 9/19/4
f 16/23/4 11/12/4 10/22/4
f 5/24/2 20/25/2 7/26/2
f 17/27/2 19/28/2 20/25/2
f 16/29/2 18/6/2 19/28/2
f 3/30/1 20/31/1 14/32/1
f 14/32/1 19/33/1 13/34/1
f 13/34/1 18/35/1 12/1/1
f 12/1/1 18/35/1 8/2/1
f 15/4/2 6/36/2 8/5/2
f 1/7/3 5/37/3 7/8/3
f 17/10/4 5/38/4 1/11/4
f 8/5/5 6/36/5 2/13/5
f 4/14/2 12/39/2 2/13/2
f 12/39/2 13/17/2 9/16/2
f 2/13/2 12/39/2 9/16/2
f 14/40/2 3/41/2 1/42/2
f 13/17/2 14/40/2 11/43/2
f 14/40/2 1/42/2 11/43/2
f 11/43/2 10/15/2 13/17/2
f 6/18/4 15/21/4 9/19/4
f 15/21/4 16/23/4 10/22/4
f 16/23/4 17/10/4 11/12/4
f 5/24/2 17/27/2 20/25/2
f 17/27/2 16/29/2 19/28/2
f 16/29/2 15/4/2 18/6/2
f 3/30/1 7/44/1 20/31/1
f 14/32/1 20/31/1 19/33/1
f 13/34/1 19/33/1 18/35/1
