# Blender v3.0.1 OBJ File: 'player.blend'
# www.blender.org
o shank_l_Cube.012
v -0.100599 0.008269 0.133659
v 0.084133 -0.008269 0.109329
v -0.100599 0.008269 -0.132717
v 0.062897 -0.008269 -0.114980
v -0.092915 -0.121842 0.133659
v -0.092915 -0.121842 -0.132717
v 0.081989 -0.131319 0.109329
v 0.060753 -0.131319 -0.114980
v -0.068188 -0.540491 0.133659
v -0.068188 -0.540491 -0.132717
v 0.075091 -0.527247 0.109329
v 0.053854 -0.527247 -0.114980
v 0.040756 -0.002757 -0.132717
v -0.029922 0.002756 -0.132717
v -0.029922 0.002756 0.133659
v 0.040756 -0.002756 0.133659
v 0.041888 -0.128160 -0.132717
v -0.025513 -0.125001 -0.132717
v -0.025513 -0.125001 0.133659
v 0.041888 -0.128160 0.133659
v 0.045531 -0.531661 -0.132717
v -0.011329 -0.536076 -0.132717
v -0.011329 -0.536076 0.133659
v 0.045531 -0.531661 0.133659
v 0.111433 -0.008269 0.067065
v 0.111433 -0.008269 0.000471
v 0.111433 -0.008269 -0.066123
v -0.100599 0.008269 -0.066123
v -0.100599 0.008269 0.000471
v -0.100599 0.008269 0.067065
v 0.109289 -0.131319 0.067065
v 0.109289 -0.131319 0.000471
v 0.109289 -0.131319 -0.066123
v -0.092915 -0.121842 -0.066123
v -0.092915 -0.121842 0.000471
v -0.092915 -0.121842 0.067065
v 0.102391 -0.527247 0.067065
v 0.102391 -0.527247 0.000471
v 0.102391 -0.527247 -0.066123
v -0.068188 -0.540491 -0.066123
v -0.068188 -0.540491 0.000471
v -0.068188 -0.540491 0.067065
vt 0.500849 0.034100
vt 0.477322 0.172048
vt 0.481362 0.025664
vt 0.867422 0.001042
vt 0.825837 0.144168
vt 0.825837 0.000358
vt 0.118442 0.642361
vt 0.177825 0.490057
vt 0.177825 0.642361
vt 0.646824 0.012832
vt 0.707643 0.152466
vt 0.648093 0.162255
vt 0.881558 0.471365
vt 0.867422 0.005442
vt 0.881558 0.000000
vt 0.867423 0.144852
vt 0.825837 0.606894
vt 0.118442 0.490057
vt 0.177825 0.000000
vt 0.702699 0.643043
vt 0.652175 0.643043
vt 0.588542 0.172044
vt 0.573071 0.640811
vt 0.550934 0.179601
vt 0.601652 0.643043
vt 0.417451 0.162259
vt 0.362741 0.643057
vt 0.357580 0.152469
vt 0.413533 0.643057
vt 0.544054 0.036262
vt 0.584468 0.025663
vt 0.418669 0.012832
vt 0.355976 0.000000
vt 0.296592 0.490057
vt 0.355976 0.000000
vt 0.355976 0.490057
vt 0.237209 0.000000
vt 0.296592 0.000000
vt 0.237209 0.490057
vt 0.493988 0.177442
vt 0.515117 0.643057
vt 0.471912 0.638661
vt 0.767508 0.143989
vt 0.709180 0.606536
vt 0.709180 0.143810
vt 0.767508 0.606715
vt 0.296592 0.642361
vt 0.355976 0.642361
vt 0.237209 0.642361
vt 0.537193 0.181837
vt 0.767508 0.000179
vt 0.709180 0.000000
vt 0.209075 0.967039
vt 0.209075 0.642361
vt 0.299708 0.858813
vt 0.671820 0.925882
vt 0.594757 0.954312
vt 0.544054 0.876495
vt 0.709180 0.000000
vt 0.869175 0.468158
vt 0.867423 0.607578
vt 0.118442 0.000000
vt 0.464325 0.643057
vt 0.544054 0.038496
vt 0.118442 0.967039
vt 0.118442 0.858813
vt 0.163758 0.967039
vt 0.118442 0.750587
vt 0.130512 0.716683
vt 0.163758 0.642361
vt 0.254391 0.642361
vt 0.299708 0.750587
vt 0.283152 0.684164
vt 0.254391 0.967039
vt 0.299708 0.967039
vt 0.594757 0.643043
vt 0.645461 0.643043
vt 0.652883 0.663769
vt 0.696164 0.720860
vt 0.696164 0.798678
vt 0.696164 0.876495
vt 0.645461 0.954312
vt 0.544054 0.954312
vt 0.544054 0.798678
vt 0.544054 0.720860
vt 0.544054 0.643043
vn 0.6261 0.0057 -0.7798
vn 0.8399 -0.0146 0.5425
vn -0.9983 -0.0590 0.0000
vn 0.0000 0.0000 1.0000
vn 0.9045 0.0082 -0.4265
vn 0.5182 -0.0090 0.8552
vn 0.0000 0.0000 -1.0000
vn 0.7094 -0.0124 -0.7047
vn 0.9998 -0.0174 0.0000
vn -0.0778 -0.9970 0.0000
vn 0.0969 -0.9951 -0.0168
vn 0.6839 -0.0119 -0.7295
vn 0.6350 0.0057 0.7725
vn 0.4896 0.0044 0.8719
vn -0.0761 -0.9751 -0.2081
vn 0.0000 -1.0000 0.0000
vn -0.1939 -0.9730 -0.1253
vn -0.0777 -0.9964 0.0327
vn -0.1143 -0.9933 -0.0195
vn 0.0757 -0.9754 0.2072
vn 0.0774 -0.9970 0.0000
vn 0.0773 -0.9958 0.0499
vn 0.0771 -0.9933 -0.0865
vn 0.1079 -0.9942 0.0000
vn 0.0774 -0.9965 -0.0325
vn 0.1235 -0.9915 0.0397
s off
f 4/1/1 17/2/1 13/3/1
f 2/4/2 31/5/2 25/6/2
f 3/7/3 34/8/3 28/9/3
f 15/10/4 5/11/4 19/12/4
f 17/13/5 12/14/5 21/15/5
f 7/16/2 37/17/2 31/5/2
f 6/18/3 40/19/3 34/8/3
f 19/12/4 9/20/4 23/21/4
f 20/22/6 11/23/6 7/24/6
f 20/22/4 23/21/4 24/25/4
f 18/26/7 10/27/7 6/28/7
f 17/2/7 22/29/7 18/26/7
f 2/30/6 20/22/6 7/24/6
f 16/31/4 19/12/4 20/22/4
f 14/32/7 6/28/7 3/33/7
f 13/3/7 18/26/7 14/32/7
f 36/34/3 9/35/3 5/36/3
f 36/34/3 41/37/3 42/38/3
f 34/8/3 41/37/3 35/39/3
f 8/40/8 39/41/8 12/42/8
f 32/43/9 39/44/9 33/45/9
f 31/5/9 38/46/9 32/43/9
f 30/47/3 5/36/3 1/48/3
f 29/49/3 36/34/3 30/47/3
f 28/9/3 35/39/3 29/49/3
f 4/1/8 33/50/8 8/40/8
f 26/51/9 33/45/9 27/52/9
f 25/6/9 32/43/9 26/51/9
f 29/53/10 26/54/10 15/55/10
f 11/56/11 23/57/11 42/58/11
f 4/1/12 8/40/12 17/2/12
f 2/4/2 7/16/2 31/5/2
f 3/7/3 6/18/3 34/8/3
f 15/10/4 1/59/4 5/11/4
f 17/13/12 8/60/12 12/14/12
f 7/16/2 11/61/2 37/17/2
f 6/18/3 10/62/3 40/19/3
f 19/12/4 5/11/4 9/20/4
f 20/22/13 24/25/13 11/23/13
f 20/22/4 19/12/4 23/21/4
f 18/26/7 22/29/7 10/27/7
f 17/2/7 21/63/7 22/29/7
f 2/30/14 16/31/14 20/22/14
f 16/31/4 15/10/4 19/12/4
f 14/32/7 18/26/7 6/28/7
f 13/3/7 17/2/7 18/26/7
f 36/34/3 42/38/3 9/35/3
f 36/34/3 35/39/3 41/37/3
f 34/8/3 40/19/3 41/37/3
f 8/40/8 33/50/8 39/41/8
f 32/43/9 38/46/9 39/44/9
f 31/5/9 37/17/9 38/46/9
f 30/47/3 36/34/3 5/36/3
f 29/49/3 35/39/3 36/34/3
f 28/9/3 34/8/3 35/39/3
f 4/1/8 27/64/8 33/50/8
f 26/51/9 32/43/9 33/45/9
f 25/6/9 31/5/9 32/43/9
f 3/65/10 14/66/10 28/67/10
f 14/66/15 13/68/15 4/69/15
f 28/67/10 14/66/10 29/53/10
f 4/69/16 27/70/16 26/54/16
f 26/54/10 25/71/10 16/72/10
f 25/71/17 2/73/17 16/72/17
f 4/69/18 26/54/18 29/53/18
f 30/74/10 29/53/10 15/55/10
f 14/66/19 4/69/19 29/53/19
f 15/55/10 1/75/10 30/74/10
f 26/54/10 16/72/10 15/55/10
f 22/76/20 21/77/20 12/78/20
f 12/78/16 39/79/16 38/80/16
f 38/80/21 37/81/21 42/58/21
f 37/81/22 11/56/22 42/58/22
f 11/56/23 24/82/23 23/57/23
f 23/57/21 9/83/21 42/58/21
f 42/58/21 41/84/21 38/80/21
f 41/84/24 40/85/24 12/78/24
f 38/80/25 41/84/25 12/78/25
f 40/85/21 10/86/21 22/76/21
f 22/76/26 12/78/26 40/85/26
