# Blender v3.0.1 OBJ File: 'player.blend'
# www.blender.org
o thigh_l_Cube.011
v 0.077000 -0.036963 -0.114852
v 0.098237 -0.036963 0.109458
v -0.171053 -0.036963 -0.132588
v -0.171053 -0.036963 0.133787
v 0.071292 0.005801 -0.114852
v 0.092529 0.005801 0.109458
v -0.190742 -0.010151 -0.132588
v -0.190742 -0.010151 0.133787
v -0.073713 -0.443425 0.133787
v 0.111020 -0.459963 0.109458
v -0.073713 -0.443425 -0.132588
v 0.089783 -0.459963 -0.114852
v 0.116771 -0.254754 0.109458
v 0.095534 -0.254754 -0.114852
v -0.107251 -0.233490 0.133787
v -0.107251 -0.233490 -0.132588
v 0.026674 -0.036963 -0.132588
v -0.072190 -0.036963 -0.132588
v -0.072190 -0.036963 0.133787
v 0.026674 -0.036963 0.133787
v 0.016305 0.000483 0.133787
v -0.087218 -0.004834 0.133787
v -0.087218 -0.004834 -0.132588
v 0.016305 0.000483 -0.132588
v 0.067642 -0.454450 -0.132588
v -0.003036 -0.448938 -0.132588
v -0.003036 -0.448938 0.133787
v 0.067642 -0.454450 0.133787
v -0.023477 -0.240578 0.133787
v 0.060297 -0.247666 0.133787
v 0.060297 -0.247666 -0.132588
v -0.023477 -0.240578 -0.132588
v -0.171053 -0.036963 -0.065995
v -0.171053 -0.036963 0.000599
v -0.171053 -0.036963 0.067193
v 0.125537 -0.036963 0.067193
v 0.125537 -0.036963 0.000599
v 0.125537 -0.036963 -0.065995
v 0.119829 0.005801 -0.065995
v 0.119829 0.005801 0.000599
v 0.119829 0.005801 0.067193
v 0.138319 -0.459963 0.067193
v 0.138319 -0.459963 0.000599
v 0.138319 -0.459963 -0.065995
v -0.073713 -0.443425 -0.065995
v -0.073713 -0.443425 0.000599
v -0.073713 -0.443425 0.067193
v -0.107251 -0.233490 -0.065995
v -0.107251 -0.233490 0.000599
v -0.107251 -0.233490 0.067193
v 0.144071 -0.254754 0.067193
v 0.144071 -0.254754 0.000599
v 0.144071 -0.254754 -0.065995
vt 0.480385 0.508191
vt 0.410334 0.478358
vt 0.491922 0.472243
vt 0.755940 0.491725
vt 0.793487 0.536567
vt 0.755474 0.538711
vt 0.216543 0.468107
vt 0.176493 0.511818
vt 0.173035 0.464835
vt 0.164097 0.226256
vt 0.194930 0.010409
vt 0.194973 0.236247
vt 0.792339 0.775025
vt 0.755940 1.000000
vt 0.754326 0.777169
vt 0.644526 0.230242
vt 0.699969 0.000000
vt 0.699969 0.230242
vt 0.526632 0.247301
vt 0.479705 0.029318
vt 0.537883 0.018937
vt 0.457688 0.260208
vt 0.644526 0.455537
vt 0.699969 0.455537
vt 0.297958 0.474697
vt 0.332539 0.262864
vt 0.379373 0.481287
vt 0.263756 0.249555
vt 0.635103 0.461836
vt 0.595576 0.234394
vt 0.644526 0.223310
vt 0.573509 0.466128
vt 0.596062 0.008557
vt 0.634246 0.000000
vt 0.311017 0.031847
vt 0.252973 0.021128
vt 0.309401 0.510712
vt 0.223994 0.509606
vt 0.631546 0.508798
vt 0.565962 0.507583
vt 0.127380 0.461827
vt 0.700574 0.538660
vt 0.644526 0.777068
vt 0.645674 0.538610
vt 0.699426 0.777119
vt 0.810856 0.455537
vt 0.866300 0.230242
vt 0.866300 0.455537
vt 0.755413 0.455537
vt 0.810856 0.230242
vt 0.755413 0.230242
vt 0.866300 0.000000
vt 0.810856 0.000000
vt 0.755413 0.000000
vt 0.129138 0.000000
vt 0.174793 0.003008
vt 0.646140 0.999899
vt 0.701040 0.999950
vt 0.130838 0.508810
vt 0.646140 0.491624
vt 0.701040 0.491675
vt 0.644526 0.489581
vt 0.425604 0.863809
vt 0.394809 0.793565
vt 0.394809 0.698361
vt 0.394809 0.508798
vt 0.793953 0.489581
vt 0.793953 0.997856
vt 0.644526 0.000000
vt 0.394809 0.511818
vt 0.118442 0.223248
vt 0.866300 0.489581
vt 0.412130 0.542960
vt 0.460671 0.508798
vt 0.394809 0.603158
vt 0.526532 0.509642
vt 0.460670 0.889612
vt 0.592394 0.510485
vt 0.526532 0.890455
vt 0.592394 0.891299
vn 0.0000 0.0000 1.0000
vn 0.8348 0.1114 0.5392
vn 0.3321 0.0443 -0.9422
vn 0.4521 0.0161 -0.8918
vn 0.8398 -0.0235 0.5424
vn -0.9875 -0.1578 0.0000
vn -0.9511 -0.3088 0.0000
vn 0.8379 0.0713 0.5412
vn 0.3319 0.0530 -0.9418
vn 0.0000 0.0000 -1.0000
vn 0.3990 0.0340 0.9163
vn 0.4878 -0.0137 0.8728
vn 0.3216 0.0429 0.9459
vn 0.7081 0.0603 -0.7035
vn 0.9964 0.0848 0.0000
vn 0.7093 -0.0199 -0.7046
vn 0.9996 -0.0280 0.0000
vn 0.7063 0.0943 -0.7016
vn 0.9912 0.1323 0.0000
vn -0.8060 -0.5919 0.0000
vn 0.0000 -1.0000 0.0000
vn 0.2987 0.0827 -0.9508
vn 0.6225 -0.0174 -0.7825
vn 0.4555 0.0388 -0.8894
vn 0.3215 0.0513 0.9455
vn 0.3971 0.0141 0.9177
vn 0.2978 0.0825 0.9511
vn 0.0874 -0.9946 0.0565
vn 0.0513 -0.9987 0.0000
vn 0.1111 -0.9927 -0.0467
s off
f 22/1/1 4/2/1 19/3/1
f 41/4/2 2/5/2 36/6/2
f 17/7/3 5/8/3 1/9/3
f 14/10/4 25/11/4 31/12/4
f 13/13/5 42/14/5 51/15/5
f 16/16/6 45/17/6 48/18/6
f 29/19/1 9/20/1 27/21/1
f 19/3/1 15/22/1 29/19/1
f 3/23/7 48/18/7 33/24/7
f 36/6/8 13/13/8 51/15/8
f 1/9/9 31/12/9 17/7/9
f 18/25/10 16/26/10 3/27/10
f 17/7/10 32/28/10 18/25/10
f 2/29/11 30/30/11 13/31/11
f 20/32/1 29/19/1 30/30/1
f 13/31/12 28/33/12 10/34/12
f 30/30/1 27/21/1 28/33/1
f 32/28/10 11/35/10 16/26/10
f 31/12/10 26/36/10 32/28/10
f 3/27/10 23/37/10 18/25/10
f 18/25/10 24/38/10 17/7/10
f 6/39/13 20/32/13 2/29/13
f 21/40/1 19/3/1 20/32/1
f 38/41/14 14/10/14 1/9/14
f 37/42/15 53/43/15 38/44/15
f 36/6/15 52/45/15 37/42/15
f 35/46/7 15/47/7 4/48/7
f 34/49/7 50/50/7 35/46/7
f 33/24/7 49/51/7 34/49/7
f 50/50/6 9/52/6 15/47/6
f 49/51/6 47/53/6 50/50/6
f 48/18/6 46/54/6 49/51/6
f 14/10/16 44/55/16 12/56/16
f 52/45/17 44/57/17 53/43/17
f 51/15/17 43/58/17 52/45/17
f 1/9/18 39/59/18 38/41/18
f 39/60/19 37/42/19 38/44/19
f 40/61/19 36/6/19 37/42/19
f 7/62/20 33/24/20 34/49/20
f 5/63/21 39/64/21 40/65/21
f 22/1/1 8/66/1 4/2/1
f 41/4/2 6/67/2 2/5/2
f 17/7/22 24/38/22 5/8/22
f 14/10/23 12/56/23 25/11/23
f 13/13/5 10/68/5 42/14/5
f 16/16/6 11/69/6 45/17/6
f 29/19/1 15/22/1 9/20/1
f 19/3/1 4/2/1 15/22/1
f 3/23/7 16/16/7 48/18/7
f 36/6/8 2/5/8 13/13/8
f 1/9/24 14/10/24 31/12/24
f 18/25/10 32/28/10 16/26/10
f 17/7/10 31/12/10 32/28/10
f 2/29/25 20/32/25 30/30/25
f 20/32/1 19/3/1 29/19/1
f 13/31/26 30/30/26 28/33/26
f 30/30/1 29/19/1 27/21/1
f 32/28/10 26/36/10 11/35/10
f 31/12/10 25/11/10 26/36/10
f 3/27/10 7/70/10 23/37/10
f 18/25/10 23/37/10 24/38/10
f 6/39/27 21/40/27 20/32/27
f 21/40/1 22/1/1 19/3/1
f 38/41/14 53/71/14 14/10/14
f 37/42/15 52/45/15 53/43/15
f 36/6/15 51/15/15 52/45/15
f 35/46/7 50/50/7 15/47/7
f 34/49/7 49/51/7 50/50/7
f 33/24/7 48/18/7 49/51/7
f 50/50/6 47/53/6 9/52/6
f 49/51/6 46/54/6 47/53/6
f 48/18/6 45/17/6 46/54/6
f 14/10/16 53/71/16 44/55/16
f 52/45/17 43/58/17 44/57/17
f 51/15/17 42/14/17 43/58/17
f 1/9/18 5/8/18 39/59/18
f 39/60/19 40/61/19 37/42/19
f 40/61/19 41/4/19 36/6/19
f 34/49/20 35/46/20 8/72/20
f 35/46/20 4/48/20 8/72/20
f 34/49/20 8/72/20 7/62/20
f 7/62/20 3/23/20 33/24/20
f 6/73/28 21/74/28 41/75/28
f 21/74/29 22/76/29 24/77/29
f 41/75/29 21/74/29 40/65/29
f 22/76/29 8/78/29 23/79/29
f 8/78/29 7/80/29 23/79/29
f 23/79/29 24/77/29 22/76/29
f 24/77/30 5/63/30 40/65/30
f 40/65/29 21/74/29 24/77/29
